<svg width="436" height="435" viewBox="0 0 436 435" fill="none" xmlns="http://www.w3.org/2000/svg">
<path d="M435.88 151.54C435.88 159.909 429.095 166.694 420.725 166.694C412.356 166.694 405.571 159.909 405.571 151.54L405.571 51.7396L276.871 180.44C270.953 186.358 261.358 186.358 255.44 180.44C249.522 174.522 249.522 164.927 255.44 159.009L384.14 30.3088H284.34C275.971 30.3087 269.186 23.5236 269.186 15.1544C269.186 6.78513 275.971 4.34216e-05 284.34 0L420.725 0.00209391C429.095 0.00209466 435.878 6.78511 435.878 15.1544L435.88 151.54Z" fill="black"/>
<path d="M435.88 151.54C435.88 159.909 429.095 166.694 420.725 166.694C412.356 166.694 405.571 159.909 405.571 151.54L405.571 51.7396L276.871 180.44C270.953 186.358 261.358 186.358 255.44 180.44C249.522 174.522 249.522 164.927 255.44 159.009L384.14 30.3088H284.34C275.971 30.3087 269.186 23.5236 269.186 15.1544C269.186 6.78513 275.971 4.34216e-05 284.34 0L420.725 0.00209391C429.095 0.00209466 435.878 6.78511 435.878 15.1544L435.88 151.54Z" fill="black" fill-opacity="0.2"/>
<path d="M0 283.34C4.20107e-05 274.971 6.78513 268.186 15.1544 268.186C23.5236 268.186 30.3087 274.971 30.3088 283.34L30.3088 383.14L159.009 254.44C164.927 248.522 174.522 248.522 180.44 254.44C186.358 260.358 186.358 269.953 180.44 275.871L51.7396 404.571H151.54C159.909 404.571 166.694 411.356 166.694 419.725C166.694 428.094 159.909 434.88 151.54 434.88L15.1544 434.878C6.78515 434.878 0.00213491 428.095 0.00213275 419.725L0 283.34Z" fill="black"/>
<path d="M0 283.34C4.20107e-05 274.971 6.78513 268.186 15.1544 268.186C23.5236 268.186 30.3087 274.971 30.3088 283.34L30.3088 383.14L159.009 254.44C164.927 248.522 174.522 248.522 180.44 254.44C186.358 260.358 186.358 269.953 180.44 275.871L51.7396 404.571H151.54C159.909 404.571 166.694 411.356 166.694 419.725C166.694 428.094 159.909 434.88 151.54 434.88L15.1544 434.878C6.78515 434.878 0.00213491 428.095 0.00213275 419.725L0 283.34Z" fill="black" fill-opacity="0.2"/>
</svg>
